<?xml version="1.0" encoding="UTF-8"?>
<svg id="_레이어_1" data-name="레이어_1" xmlns="http://www.w3.org/2000/svg" version="1.1" viewBox="0 0 163.4 178">
  <!-- Generator: Adobe Illustrator 29.6.1, SVG Export Plug-In . SVG Version: 2.1.1 Build 9)  -->
  <defs>
    <style>
      .st0 {
        fill: #231815;
        stroke: #231815;
        stroke-width: .5px;
      }
    </style>
  </defs>
  <path class="st0" d="M157.13,89.66h0c-.09-11.33-12.37-22.28-12.37-22.28L82.41,8.26l-62.34,59.12s-12.28,10.95-12.37,22.28h-.01v.06s0,.04,0,.04v.02c.1,11.34,12.38,22.28,12.38,22.28l62.34,59.12,62.35-59.12s12.28-10.94,12.37-22.28h0s0-.04,0-.06v-.06ZM82.41,142.42c-28.8,0-52.15-23.36-52.15-52.15s23.33-52.12,52.11-52.15h.05s.04,0,.07,0c28.77.04,52.09,23.36,52.09,52.15s-23.35,52.15-52.16,52.15Z"/>
  <path class="st0" d="M82.9,38.14c-1.36,0-2.7.07-4.02.18-.68.48-1.37,1-2.1,1.55-7.89,5.98-18.03,16.06-26.15,31.87-16.51,32.17-5.12,55.34-5.12,55.34,0,0-4.6-22.12,16.04-50.45,4.62-6.35,10.02-11.12,15.12-15.1,13.4-10.48,26.47-14.29,33.17-15.63-7.84-4.85-17.05-7.71-26.94-7.76Z"/>
  <path class="st0" d="M122.26,56.54c-8.57,2.11-25.51,8.41-43.92,27.01-.63.64-1.18,1.28-1.79,1.92-24.47,26.19-24.32,46.81-24.32,46.81,2.17-6.8,10.32-16.1,24.23-29.5,3-2.89,6.36-5.62,9.99-8.19,20.82-14.92,38.73-18.36,46.04-19.17-2.08-7.03-5.61-13.43-10.23-18.88Z"/>
  <path class="st0" d="M74.94,123.91c-7.93,7.77-13.13,13.36-13.13,13.36,3.77-3.4,10.18-6.98,14.65-9.42,17.97-9.81,42.05-16.71,53.43-16.14,2.52-5.52,4.08-11.56,4.54-17.91-28.81,3.52-48.17,19.02-59.48,30.12Z"/>
  <path class="st0" d="M155.7,88.23h0c-.09-11.34-12.37-22.28-12.37-22.28L80.98,6.82l-62.34,59.12s-12.29,10.94-12.37,22.28h-.01v.06s0,.06,0,.06h.01c.08,11.33,12.37,22.28,12.37,22.28l62.34,59.13,62.34-59.13s12.28-10.95,12.37-22.28h0v-.06s0-.06,0-.06ZM80.97,140.98c-28.8,0-52.15-23.35-52.15-52.15s23.32-52.13,52.1-52.15h.05s.03,0,.06,0c28.77.04,52.09,23.37,52.09,52.15s-23.35,52.15-52.15,52.15Z"/>
  <path class="st0" d="M81.46,36.7c-1.36,0-2.7.07-4.01.18-.68.49-1.38,1.01-2.11,1.56-7.88,5.98-18.02,16.06-26.14,31.87-16.52,32.17-3.69,56.77-3.69,56.77,0,0-6.04-23.55,14.6-51.88,4.63-6.35,10.03-11.12,15.13-15.1,13.4-10.48,26.47-14.29,33.17-15.64-7.84-4.84-17.05-7.7-26.94-7.76Z"/>
  <path class="st0" d="M120.83,55.11c-8.57,2.11-25.52,8.41-43.93,27.01-.63.64-1.18,1.28-1.78,1.92-24.48,26.19-22.89,48.25-22.89,48.25,2.17-6.8,8.88-17.54,22.81-30.93,3-2.89,6.36-5.62,9.98-8.2,20.82-14.92,38.73-18.36,46.04-19.17-2.08-7.04-5.61-13.43-10.23-18.88Z"/>
  <path class="st0" d="M73.51,122.48c-7.93,7.77-11.7,14.79-11.7,14.79,3.77-3.4,7.62-6.57,12.83-9.81,20.03-12.49,42.43-17.75,53.81-17.18,2.52-5.52,4.09-11.55,4.54-17.92-28.8,3.53-48.17,19.02-59.48,30.12Z"/>
</svg>