<svg version="1.1" id="Layer_1" xmlns="http://www.w3.org/2000/svg" xmlns:xlink="http://www.w3.org/1999/xlink" x="0px" y="0px"
	 width="100%" viewBox="0 0 1024 1024" enable-background="new 0 0 1024 1024" xml:space="preserve">
<path fill="#000000" opacity="1.000000" stroke="none" 
	d="
M458.476135,176.470749 
	C475.113464,160.863785 491.475586,145.477783 507.845276,130.099838 
	C511.585968,126.585747 515.438232,126.360725 519.360596,129.961777 
	C531.955688,141.524963 544.397400,153.254959 556.930237,164.886185 
	C571.309998,178.231461 585.649658,191.612625 599.774780,205.234528 
	C619.500122,224.257111 639.975891,242.504486 659.605286,261.622986 
	C685.910706,287.243805 713.228455,311.775238 739.817871,337.087982 
	C750.921631,347.658600 761.473328,358.654785 770.087769,371.309448 
	C776.676086,380.987640 781.661621,391.450623 785.989990,402.500641 
	C790.269592,413.426300 788.832336,424.080994 789.155151,434.909241 
	C789.342590,441.194916 786.200195,446.910583 783.857971,452.372650 
	C773.498169,476.531769 756.147766,495.478241 737.002563,513.047485 
	C720.712341,527.996765 704.931885,543.500061 688.836548,558.663330 
	C652.747314,592.662537 616.607239,626.607849 580.478455,660.565125 
	C561.083618,678.794189 541.623413,696.954163 522.312927,715.272095 
	C519.395325,718.039673 517.662598,718.096252 514.496460,715.305786 
	C478.174133,683.294067 443.849854,649.142944 408.355255,616.246216 
	C383.238464,592.967773 358.666840,569.084351 333.577087,545.761414 
	C316.422729,529.815063 299.365295,513.765625 282.896210,497.108612 
	C271.049347,485.126587 260.901367,471.794952 252.700287,457.081635 
	C243.493988,440.564911 240.340027,422.671021 243.838745,404.206604 
	C245.404663,395.942566 249.450134,388.104828 253.544724,380.494690 
	C268.975739,351.814850 294.031769,331.845978 317.002380,310.035980 
	C337.033295,291.017090 357.394318,272.347229 377.348236,253.239899 
	C404.153595,227.571869 431.238678,202.195938 458.476135,176.470749 
M519.921631,374.423004 
	C534.540344,361.828033 549.740479,349.987122 566.005554,339.585754 
	C591.231628,323.454041 617.742859,310.014709 646.662781,301.723846 
	C650.987732,300.483978 651.413147,298.726990 648.096436,295.592407 
	C642.413940,290.221863 636.056824,285.611389 630.256470,280.419617 
	C622.261780,273.263763 613.999695,269.342377 603.367859,273.688965 
	C602.766541,273.934814 602.040649,273.857056 601.406006,274.043213 
	C596.011963,275.625305 590.361694,276.655243 585.297363,278.966309 
	C577.176453,282.672119 568.639709,285.240173 560.514526,288.988678 
	C550.779114,293.480042 541.110474,298.118500 531.791687,303.325928 
	C518.172363,310.936646 505.486755,320.018250 493.306122,329.845093 
	C477.590942,342.523529 462.874481,356.116547 450.345703,372.025757 
	C439.422974,385.895599 429.504059,400.488770 421.209656,415.997864 
	C414.456451,428.625244 408.025024,441.467072 403.352844,455.200287 
	C398.831512,468.489960 393.360901,481.407532 391.885986,495.541809 
	C391.700073,497.323395 390.921478,499.052948 390.342743,500.781586 
	C389.391296,503.623352 388.222015,506.424957 388.279694,509.484222 
	C388.518158,522.120239 387.624207,534.748962 387.572510,547.384155 
	C387.537994,555.818481 391.362366,560.068420 396.387054,564.768188 
	C397.348145,565.667114 398.602570,566.244446 399.622253,567.090027 
	C405.192322,571.709229 407.048767,571.290466 407.816193,564.115479 
	C409.321594,550.040344 412.594666,536.454651 416.673065,522.922729 
	C420.419922,510.490814 425.291992,498.535065 431.041077,487.029022 
	C441.907745,465.280731 455.161499,444.994812 470.469147,426.024567 
	C485.350464,407.582672 501.651337,390.564209 519.921631,374.423004 
M501.093109,470.623932 
	C500.320099,471.257050 499.495819,471.837433 498.781525,472.531006 
	C472.536926,498.012909 446.639954,523.793823 425.073486,553.556213 
	C420.265930,560.190857 417.904541,568.004456 413.527191,574.793518 
	C412.814514,575.898926 413.328461,577.037170 414.506134,577.759094 
	C422.667175,582.762024 430.797272,587.822388 440.005585,590.776367 
	C442.076996,591.440857 444.084930,591.640625 445.109589,589.251038 
	C447.036835,584.756409 450.307526,581.224548 453.126434,577.337708 
	C474.629425,547.688782 501.560791,523.504456 530.316223,501.306000 
	C547.398438,488.118927 565.813538,476.863007 585.153992,467.113556 
	C602.645142,458.296326 620.693298,450.886841 639.283813,444.906738 
	C657.155151,439.157990 675.556396,435.412720 694.145020,432.717560 
	C697.381836,432.248230 698.637634,430.624146 698.753784,427.393372 
	C699.018127,420.044525 698.684082,412.729187 697.458435,405.506744 
	C696.341614,398.926086 697.660217,392.163513 695.586121,385.669128 
	C693.395508,378.809967 691.926880,378.132294 684.821167,378.361694 
	C677.033264,378.613129 669.987488,381.835327 662.434692,383.012115 
	C656.277588,383.971497 650.252625,386.056152 644.312256,388.065125 
	C635.088196,391.184662 625.935303,394.497253 616.850220,398.048553 
	C606.213684,402.206390 595.879333,406.980072 585.830933,412.246521 
	C570.883911,420.080505 556.533447,428.959930 542.480103,438.396332 
	C528.087830,448.060303 514.583618,458.715057 501.093109,470.623932 
M447.064880,256.817291 
	C443.714447,256.897766 441.295074,259.167755 438.432953,260.410156 
	C422.752045,267.216980 408.921051,276.855835 395.905945,287.773987 
	C381.630402,299.749512 370.083618,314.081757 360.307526,329.834351 
	C352.767792,341.983368 346.900970,354.933258 342.276001,368.515808 
	C340.384033,374.072174 339.466003,379.780945 337.894043,385.366638 
	C334.270538,398.242188 332.745544,411.542267 332.835724,424.799683 
	C332.985657,446.837738 336.546936,468.490845 344.041992,489.308960 
	C346.611389,496.445709 349.929962,503.333008 353.212646,510.187561 
	C357.362274,518.852295 362.976715,526.658936 368.459961,534.499023 
	C370.628906,537.600281 372.524475,541.158936 375.963837,543.285767 
	C376.979645,542.026428 376.820526,540.939758 376.284149,540.138245 
	C370.980469,532.212524 370.711365,522.518188 369.613525,513.924500 
	C367.393921,496.549957 365.208740,478.921417 366.831329,461.198029 
	C368.256134,445.634888 369.421082,429.976807 373.667114,414.934509 
	C376.661987,404.324738 380.074249,393.781769 384.031403,383.393097 
	C388.291931,372.208008 393.159119,361.335358 398.659424,350.838379 
	C413.627258,322.273163 432.053375,296.036438 454.500031,272.772949 
	C464.006195,262.920868 473.389526,252.872650 485.312073,245.465332 
	C472.434052,247.877045 459.799316,251.094238 447.064880,256.817291 
M563.404480,533.925110 
	C555.384338,537.362793 547.241394,540.536987 539.150635,543.764709 
	C525.924072,549.041199 513.209717,555.364563 500.667755,561.916260 
	C486.977264,569.067993 473.419189,576.696106 461.066742,586.078674 
	C457.636475,588.684265 452.988953,589.990234 450.742676,594.229797 
	C452.949066,596.638123 455.665649,597.196045 458.435577,597.917542 
	C467.258820,600.215515 476.310028,601.501404 485.131622,603.534180 
	C500.565826,607.090759 515.970703,606.155396 531.350403,605.331299 
	C539.887756,604.873779 548.642090,603.339111 556.881287,601.065857 
	C567.162048,598.229248 577.371338,594.869141 587.311523,590.646362 
	C601.324280,584.693604 614.160889,576.943054 626.272156,567.965637 
	C646.846375,552.715027 662.733521,533.240295 675.779602,511.340302 
	C676.494080,510.140991 677.072144,508.920074 676.312622,507.606384 
	C675.450867,506.116028 674.020630,506.610260 672.723755,506.842743 
	C667.794312,507.726562 662.832825,508.180389 657.819092,508.194977 
	C648.415405,508.222290 639.460876,511.328735 630.502014,513.387878 
	C622.875549,515.140808 615.120850,517.325684 607.500366,519.492249 
	C592.840027,523.660339 578.521606,528.753113 563.404480,533.925110 
z"/>
<path fill="#000000" opacity="1.000000" stroke="none" 
	d="
M575.819336,768.022888 
	C591.143921,768.898865 601.171570,779.422180 601.359863,794.236633 
	C601.531372,807.728821 601.927917,821.219482 601.957764,834.711426 
	C601.968262,839.477783 603.796936,841.600769 608.565308,842.102722 
	C614.106201,842.686035 619.532837,841.855286 625.006348,841.628967 
	C627.335999,841.532654 628.403259,839.906616 628.993835,837.778748 
	C629.719788,835.163513 629.735352,832.509094 629.738220,829.844055 
	C629.757385,811.845825 629.771851,793.847534 629.776489,775.849304 
	C629.777954,770.074097 630.792358,768.836670 636.540405,768.302185 
	C638.848328,768.087585 641.205750,768.129028 643.519348,768.316650 
	C647.226135,768.617371 649.139771,770.563782 649.177673,774.504150 
	C649.363586,793.819946 649.796936,813.134216 649.870300,832.450012 
	C649.909363,842.734131 647.054626,851.665955 637.487610,857.556396 
	C632.207581,860.807373 626.601501,860.202759 621.052673,860.520020 
	C616.076721,860.804688 611.044739,860.097473 606.067322,860.371033 
	C590.910583,861.204041 580.976807,847.474426 580.872314,834.955872 
	C580.763794,821.957886 580.810974,808.958496 580.811279,795.959717 
	C580.811462,786.414429 577.140259,786.335205 569.230469,787.360962 
	C565.180237,787.886230 565.234375,791.815125 565.211609,794.959534 
	C565.117554,807.957458 564.815491,820.967468 565.241943,833.951660 
	C565.638977,846.040466 554.835327,861.527100 540.006226,860.552612 
	C533.429626,860.120422 526.708191,860.412903 520.066223,860.497375 
	C507.780731,860.653625 497.130524,851.401672 496.893829,837.472168 
	C496.534271,816.313599 496.752167,795.145447 496.701416,773.981323 
	C496.693207,770.561157 498.433685,768.736511 501.693359,768.219421 
	C502.676819,768.063416 503.682007,768.017090 504.679413,767.981140 
	C515.526184,767.590088 516.245972,768.343018 516.242737,779.153748 
	C516.237610,796.318787 516.297485,813.483826 516.379517,830.648682 
	C516.388977,832.636230 516.725464,834.621338 516.889648,836.609314 
	C517.171387,840.020386 519.070435,841.722473 522.434692,841.746643 
	C527.429565,841.782532 532.425049,841.755737 537.420166,841.729431 
	C541.917725,841.705811 543.947632,839.653687 543.896423,834.929626 
	C543.759033,822.266663 543.843506,809.598633 544.038940,796.935608 
	C544.214478,785.563171 548.081665,776.229614 558.803894,770.578308 
	C564.135315,767.768250 569.758850,768.296936 575.819336,768.022888 
z"/>
<path fill="#000000" opacity="1.000000" stroke="none" 
	d="
M278.049744,768.009277 
	C301.026428,768.023438 323.511353,768.008484 345.996002,768.082825 
	C349.057953,768.092957 353.054535,767.132568 354.507050,770.644653 
	C356.296509,774.971375 355.941406,779.848511 354.598907,784.327454 
	C353.865143,786.775635 351.121033,786.421875 348.947174,786.418945 
	C325.807465,786.388062 302.667725,786.350037 279.528015,786.357056 
	C277.208954,786.357788 274.811707,786.318665 272.586304,786.857727 
	C266.989258,788.213623 263.283813,799.156982 266.845001,803.544006 
	C268.324799,805.366943 270.537659,804.750793 272.475494,804.752075 
	C297.292175,804.768616 322.108856,804.725220 346.925476,804.757690 
	C349.976166,804.761719 353.449890,803.854004 355.386353,807.446106 
	C356.716492,809.913452 356.090912,820.739807 354.589355,822.549561 
	C353.121582,824.318542 351.126221,824.256775 349.101166,824.251953 
	C323.452118,824.191040 297.802429,824.227783 272.154633,824.020264 
	C267.914368,823.985962 266.128754,825.213806 266.052277,829.609253 
	C265.858521,840.745422 267.613831,842.911438 279.420471,842.495972 
	C302.065643,841.699097 324.713409,842.289978 347.356293,841.908875 
	C354.638062,841.786316 356.022186,843.269531 356.070923,851.182983 
	C356.122467,859.550964 354.820221,861.033081 347.333130,860.972107 
	C321.856140,860.764709 296.379333,860.400269 270.902405,860.396973 
	C261.938416,860.395813 255.388107,856.711609 250.103561,849.754517 
	C247.330048,846.103149 247.274582,841.909363 247.140091,837.866699 
	C246.569580,820.718323 246.942200,803.563477 247.836807,786.431458 
	C248.205627,779.368347 258.297607,769.712830 266.104706,768.719116 
	C269.891235,768.237183 273.738251,768.230347 278.049744,768.009277 
z"/>
<path fill="#000000" opacity="1.000000" stroke="none" 
	d="
M908.140076,789.656982 
	C911.216309,777.205200 920.111633,768.812012 932.399658,768.413452 
	C952.533752,767.760437 972.698975,768.053589 992.851196,767.985901 
	C995.576904,767.976807 997.847046,769.128601 998.708008,771.816467 
	C999.583252,774.548706 1001.057617,776.937683 1002.271362,779.481018 
	C1004.325378,783.785217 1002.328125,786.642090 997.544434,786.618835 
	C979.558289,786.531616 961.572205,786.432617 943.585938,786.388062 
	C941.095520,786.381897 938.587708,786.521484 936.117065,786.828064 
	C930.477234,787.527649 927.588318,790.831665 927.632812,796.512207 
	C927.726685,808.473022 927.860352,820.433716 928.032837,832.393616 
	C928.145813,840.220093 929.639465,841.970459 937.347412,842.016357 
	C954.835205,842.120544 972.325500,842.039246 989.813110,841.866272 
	C996.823181,841.796997 998.301331,840.252808 998.560974,833.960510 
	C998.780273,828.644836 995.005676,824.457214 989.440125,824.129028 
	C985.786682,823.913513 982.113647,823.997559 978.449524,824.003113 
	C966.623291,824.020935 954.796997,824.068604 942.970764,824.096985 
	C935.885071,824.114014 934.723022,822.983032 934.721130,816.114929 
	C934.718018,804.671631 934.729858,804.706299 946.091919,804.756042 
	C961.082825,804.821716 976.075500,804.935425 991.064880,804.784058 
	C1003.550903,804.657959 1015.256592,814.327881 1018.427002,824.545471 
	C1022.481934,837.613770 1016.794495,851.662354 1005.479614,858.398804 
	C1003.091553,859.820496 1000.464966,860.184631 997.788452,860.188660 
	C975.137146,860.222473 952.483643,860.035828 929.835388,860.300842 
	C918.877686,860.429077 907.817444,846.897705 907.891235,838.052124 
	C908.024597,822.064148 908.017090,806.075073 908.140076,789.656982 
z"/>
<path fill="#000000" opacity="1.000000" stroke="none" 
	d="
M872.864136,835.623047 
	C874.435913,815.232422 873.351013,795.237305 873.599426,775.258301 
	C873.664673,770.007935 874.890320,768.415405 880.080627,768.018372 
	C880.578125,767.980286 881.079529,767.994690 881.579163,767.984619 
	C892.402466,767.767151 893.097107,768.474426 893.130615,779.384583 
	C893.188965,798.376160 892.871460,817.381348 893.514465,836.353638 
	C893.864868,846.693848 882.572571,861.160095 870.353516,860.502319 
	C863.926697,860.156250 857.356873,860.177185 850.922546,860.518311 
	C835.086243,861.358093 824.756958,848.657471 824.952942,833.526184 
	C825.110413,821.367981 825.003540,809.204102 824.843201,797.045044 
	C824.726135,788.164673 823.059021,786.565613 814.314636,786.351379 
	C811.153137,786.273865 807.974487,786.240234 804.824890,786.473022 
	C798.565430,786.935608 796.423218,788.918152 796.400085,795.255737 
	C796.337341,812.410828 796.569519,829.567017 796.694519,846.722717 
	C796.699341,847.386658 796.823730,848.048828 796.862122,848.713562 
	C797.509399,859.906006 792.445679,863.824097 781.573242,860.602417 
	C778.945007,859.823669 777.728699,858.058899 777.735229,855.446655 
	C777.792053,832.791382 777.618469,810.130737 778.086243,787.483521 
	C778.275574,778.317932 788.095703,769.489990 797.228027,768.642151 
	C805.379028,767.885437 813.518738,768.144714 821.680176,768.232727 
	C834.397400,768.369873 845.992432,782.746460 845.306091,793.982666 
	C844.525513,806.761047 845.158569,819.626770 845.210449,832.454468 
	C845.241943,840.244324 846.633911,841.721497 854.557007,841.957886 
	C858.546753,842.076965 862.548950,841.869873 866.542786,841.732056 
	C870.191406,841.606140 872.548950,839.955322 872.864136,835.623047 
z"/>
<path fill="#000000" opacity="1.000000" stroke="none" 
	d="
M217.134430,791.160767 
	C220.615326,804.242798 224.014252,816.931458 227.425934,829.616699 
	C229.497849,837.320435 231.773254,844.975220 233.612320,852.733826 
	C235.004807,858.608337 232.981201,860.913940 227.085678,860.975647 
	C225.086456,860.996582 223.083344,860.990845 221.087158,860.892639 
	C214.720535,860.579529 212.480286,858.640259 211.613571,852.322449 
	C210.570145,844.716553 207.217484,837.710632 206.156082,830.076660 
	C205.606613,826.124756 202.846176,824.012207 198.285553,824.116455 
	C186.624924,824.383118 174.954605,824.261047 163.288315,824.231812 
	C156.609711,824.215088 155.325790,822.339844 157.426743,815.935120 
	C161.118851,804.679810 161.118790,804.693848 172.956100,804.727356 
	C180.122528,804.747620 187.289795,804.653076 194.455322,804.733093 
	C198.501251,804.778259 199.510147,802.978210 198.171463,799.382507 
	C197.242157,796.886414 196.498032,794.313904 195.444733,791.873291 
	C194.165436,788.908936 191.965698,787.025452 188.530762,787.024414 
	C181.198837,787.022217 173.866745,787.053406 166.535080,787.008850 
	C162.637497,786.985168 160.951065,789.594604 159.761139,792.657532 
	C156.378265,801.365356 154.854721,810.599670 152.374023,819.564148 
	C149.138412,831.256775 146.473831,843.108521 143.629349,854.907654 
	C142.710220,858.720215 140.158340,860.500000 136.516434,860.823608 
	C133.869720,861.058716 131.188110,861.007751 128.525803,860.939087 
	C122.888405,860.793884 120.864258,858.564758 122.112885,852.974060 
	C123.924683,844.861755 126.229118,836.859436 128.322433,828.809998 
	C130.455276,820.608582 132.427704,812.361389 134.759232,804.216858 
	C137.663879,794.070251 139.146820,783.260925 147.022430,775.225891 
	C150.696365,771.477539 154.826309,768.870728 160.446854,768.533569 
	C171.279343,767.883789 182.098343,768.137939 192.924240,768.217468 
	C201.844009,768.283081 207.830093,773.322571 212.290710,780.358398 
	C214.315125,783.551514 215.494888,787.280212 217.134430,791.160767 
z"/>
<path fill="#000000" opacity="1.000000" stroke="none" 
	d="
M763.057861,840.164673 
	C764.508667,845.186035 764.941711,850.022522 766.666870,854.588745 
	C767.950684,857.986755 766.205078,860.257568 762.734558,860.510498 
	C758.610046,860.811096 754.443359,860.660339 750.300354,860.530884 
	C747.811523,860.453186 746.465027,858.827881 745.842896,856.500732 
	C743.442078,847.519897 740.860901,838.582947 738.681885,829.548950 
	C737.749390,825.682983 736.076172,823.979187 731.898254,824.067017 
	C719.911194,824.318970 707.916443,824.200989 695.924683,824.230042 
	C690.060547,824.244202 688.475159,822.269836 689.775635,816.511841 
	C690.142273,814.888306 690.653198,813.296814 691.004028,811.670349 
	C692.069275,806.731567 694.774353,804.392761 700.139832,804.593201 
	C708.954773,804.922485 717.791077,804.650940 726.617859,804.706848 
	C730.573608,804.731934 732.381714,803.478210 730.511475,799.297424 
	C729.910583,797.954346 729.825439,796.388062 729.428772,794.944702 
	C727.791748,788.987915 725.293579,787.009277 719.143738,786.956360 
	C713.148438,786.904785 707.151306,786.903137 701.156677,786.994263 
	C695.728638,787.076721 692.691284,789.799011 691.345947,795.008789 
	C687.655212,809.300842 683.689209,823.523071 680.126892,837.846313 
	C678.644653,843.806396 677.548828,849.841370 675.558716,855.692688 
	C674.500854,858.802979 672.894958,860.632751 669.645386,860.739685 
	C665.988281,860.859924 662.301514,861.091187 658.671753,860.771729 
	C654.286438,860.385986 653.238464,858.050354 654.402405,853.804871 
	C657.999084,840.685364 661.286865,827.480957 664.907898,814.368347 
	C668.248413,802.271484 669.796448,789.489624 677.124939,778.821838 
	C681.298950,772.745850 686.687256,768.637146 694.788269,768.400513 
	C704.613403,768.113464 714.434998,767.976440 724.250671,768.126160 
	C735.395386,768.296021 744.567078,775.524902 747.909729,786.163025 
	C752.781677,801.667908 757.154175,817.304382 760.589600,833.199097 
	C761.077271,835.455505 762.137939,837.588135 763.057861,840.164673 
z"/>
<path fill="#000000" opacity="1.000000" stroke="none" 
	d="
M77.200279,831.000000 
	C77.314499,838.995300 77.395020,846.491455 77.568497,853.985474 
	C77.604088,855.522888 77.764206,857.178589 76.726181,858.290771 
	C72.243225,863.094421 66.373360,861.020569 61.154434,860.702087 
	C56.860992,860.440002 56.911179,856.289856 56.961403,852.859741 
	C57.178455,838.035645 57.462257,823.212036 57.576805,808.387146 
	C57.620510,802.731140 57.135792,797.071777 57.155472,791.414856 
	C57.169273,787.447815 55.344620,786.199646 51.603874,786.324097 
	C40.619301,786.689697 29.613808,785.811951 18.636904,786.780701 
	C15.123374,787.090820 13.270051,785.569641 12.980580,782.082520 
	C12.966805,781.916565 12.968243,781.749329 12.953695,781.583496 
	C11.824049,768.705200 12.454035,767.988464 25.235622,767.978333 
	C54.398464,767.955261 83.561325,767.946899 112.724174,767.948914 
	C115.867928,767.949158 119.608376,767.377258 121.103325,770.904053 
	C122.887299,775.112793 122.778099,779.758728 121.047523,784.016724 
	C120.029457,786.521545 117.250999,786.364685 114.899406,786.365234 
	C104.567551,786.367737 94.235512,786.308655 83.903900,786.354248 
	C78.047707,786.380066 77.253174,787.149780 77.223129,793.005371 
	C77.159027,805.503235 77.200974,818.001770 77.200279,831.000000 
z"/>
<path fill="#000000" opacity="1.000000" stroke="none" 
	d="
M393.600769,819.494629 
	C393.592316,817.428467 393.633972,815.766113 393.662598,814.103455 
	C393.821106,804.895752 393.966888,804.758423 403.405396,804.768250 
	C415.388641,804.780762 427.373749,804.658325 439.354614,804.832397 
	C451.319000,805.006165 464.925507,797.204590 463.927124,780.939636 
	C463.180450,768.775940 463.910461,767.568481 478.628387,768.057129 
	C482.542297,768.187134 484.276001,770.183044 484.309021,774.059326 
	C484.428009,788.038818 482.205750,801.236023 472.095490,811.902161 
	C470.335602,813.758789 470.016479,815.378723 472.185394,817.383728 
	C480.646118,825.205200 483.649719,835.375916 484.270721,846.491089 
	C484.344879,847.818481 484.370850,849.160034 484.269592,850.483582 
	C484.016052,853.797241 485.860657,858.214478 481.650177,859.812378 
	C476.620209,861.721191 471.169434,861.667419 466.108704,859.262634 
	C464.282227,858.394775 463.867035,856.481018 463.867676,854.555298 
	C463.868469,852.225403 463.808411,849.892395 463.905853,847.566162 
	C464.546448,832.272339 452.433746,824.721802 440.667450,824.306030 
	C427.203857,823.830200 413.709320,824.171753 400.229034,824.270447 
	C396.909210,824.294739 394.193909,823.841980 393.600769,819.494629 
z"/>
<path fill="#000000" opacity="1.000000" stroke="none" 
	d="
M383.364685,860.805420 
	C368.905579,861.075439 368.861237,861.075134 368.953156,847.040527 
	C369.112122,822.770752 369.381531,798.501526 369.478149,774.231628 
	C369.494263,770.181396 371.107635,768.649902 375.115570,768.516296 
	C390.933838,767.989136 388.991058,769.335510 389.058594,781.742310 
	C389.189819,805.851501 389.295074,829.960938 389.520416,854.069275 
	C389.558929,858.192749 387.721436,860.254395 383.364685,860.805420 
z"/>
</svg>