<?xml version="1.0" encoding="UTF-8"?>
<svg id="_레이어_1" data-name="레이어_1" xmlns="http://www.w3.org/2000/svg" viewBox="0 0 241.49 263.18">
  <defs>
    <style>
      .cls-1 {
        fill: #09051c;
        stroke: #09051c;
        stroke-width: .5px;
      }
    </style>
  </defs>
  <path class="cls-1" d="M241.22,132.64h0c-.15-18.1-19.76-35.58-19.76-35.58L121.88,2.63,22.32,97.06S2.7,114.54,2.57,132.64h-.02v.09s0,.07,0,.07l.02.03c.14,18.1,19.75,35.58,19.75,35.58l99.56,94.42,99.57-94.42s19.62-17.47,19.76-35.58h0s0-.07,0-.1v-.09ZM121.88,216.91c-46,0-83.3-37.3-83.3-83.29S75.84,50.37,121.81,50.32h.08s.07,0,.11,0c45.95.06,83.19,37.32,83.19,83.29s-37.29,83.29-83.3,83.29Z"/>
  <path class="cls-1" d="M122.66,50.35c-2.17,0-4.31.11-6.42.29-1.08.77-2.19,1.6-3.35,2.48-12.6,9.56-28.79,25.65-41.77,50.91-26.38,51.37-8.18,88.38-8.18,88.38,0,0-7.34-35.32,25.62-80.57,7.37-10.15,16-17.76,24.16-24.12,21.4-16.73,42.27-22.82,52.98-24.97-12.52-7.74-27.23-12.31-43.03-12.4Z"/>
  <path class="cls-1" d="M185.52,79.75c-13.68,3.37-40.74,13.44-70.15,43.13-1.01,1.02-1.89,2.04-2.86,3.07-39.08,41.82-38.84,74.77-38.84,74.77,3.47-10.87,16.48-25.72,38.7-47.12,4.8-4.61,10.17-8.97,15.95-13.09,33.25-23.83,61.86-29.33,73.53-30.61-3.32-11.24-8.95-21.45-16.34-30.15Z"/>
  <path class="cls-1" d="M109.95,187.35c-12.66,12.41-20.97,21.33-20.97,21.33,6.03-5.43,16.26-11.14,23.39-15.05,28.7-15.66,67.16-26.69,85.34-25.77,4.03-8.81,6.52-18.46,7.25-28.61-46.02,5.63-76.93,30.38-95,48.1Z"/>
  <path class="cls-1" d="M238.93,130.36h0c-.14-18.12-19.76-35.59-19.76-35.59L119.6.34,20.04,94.77S.41,112.25.28,130.36h-.02v.09s0,.09,0,.09h.02c.13,18.09,19.75,35.58,19.75,35.58l99.57,94.43,99.56-94.43s19.62-17.48,19.76-35.58h0v-.09s0-.09,0-.09ZM119.59,214.62c-45.99,0-83.28-37.29-83.28-83.3S73.55,48.07,119.52,48.03h.08s.06,0,.09,0c45.95.06,83.19,37.33,83.19,83.29s-37.29,83.3-83.3,83.3Z"/>
  <path class="cls-1" d="M120.37,48.06c-2.17,0-4.31.11-6.41.28-1.09.78-2.21,1.61-3.36,2.49-12.59,9.55-28.78,25.65-41.76,50.91-26.39,51.37-5.9,90.67-5.9,90.67,0,0-9.64-37.62,23.32-82.85,7.39-10.15,16.02-17.76,24.16-24.12,21.41-16.73,42.28-22.82,52.98-24.98-12.52-7.73-27.23-12.31-43.03-12.39Z"/>
  <path class="cls-1" d="M183.24,77.46c-13.69,3.37-40.75,13.43-70.16,43.13-1.01,1.03-1.89,2.04-2.85,3.07-39.09,41.82-36.56,77.06-36.56,77.06,3.47-10.87,14.19-28.01,36.42-49.4,4.79-4.61,10.16-8.97,15.94-13.1,33.25-23.82,61.86-29.33,73.54-30.61-3.32-11.24-8.95-21.46-16.33-30.16Z"/>
  <path class="cls-1" d="M107.67,185.06c-12.66,12.41-18.69,23.62-18.69,23.62,6.03-5.43,12.18-10.49,20.5-15.67,31.99-19.94,67.76-28.35,85.94-27.44,4.02-8.81,6.54-18.45,7.25-28.62-46,5.64-76.94,30.38-95,48.11Z"/>
</svg>